<svg id="Camada_1" data-name="Camada 1" xmlns="http://www.w3.org/2000/svg" viewBox="0 0 16.63 24.13"><defs><style>.cls-1{fill:#fff;}.cls-2,.cls-4,.cls-5{stroke:#000;stroke-miterlimit:10;}.cls-2,.cls-4{stroke-width:0.25px;}.cls-3{fill:#ffc07f;opacity:0.5;}.cls-4{fill:none;}.cls-5{stroke-width:2px;}</style></defs><path class="cls-1" d="M3.69,22.65a15.28,15.28,0,0,1-1.9-3A9.46,9.46,0,0,1,.74,16,9.33,9.33,0,0,1,1,13.38c.44-2.11,1-2.23,1.31-3.93s-.2-1.56.07-3.54a10,10,0,0,1,1-3.4C3.93,1.56,4.57.36,5.25.42,6.18.5,6.86,2.87,7.08,4.08c.27,1.46.07,2.24.72,2.76.37.29.54.12,1.83.52S11,8,11.46,7.89s.51-.54,1.38-1.45a9.83,9.83,0,0,1,1.57-1.31c1.12-.81,1.69-1.21,2.09-1,.7.29.56,2.1.52,2.62-.2,2.57-1.17,3.19-2.09,6s-.38,3.69-1.64,5.9a11.48,11.48,0,0,1-1.7,2.28,12.77,12.77,0,0,1-3.72,2.54c-1.83.95-2.35.87-2.62.79S4.63,23.94,3.69,22.65Z" transform="translate(-0.52 -0.29)"/><path class="cls-2" d="M4.53,12.58c.22-.12.41-.32.65-.35a.54.54,0,0,1,.5.19c.13.15.06.41,0,.59a.36.36,0,0,1-.07.1.3.3,0,0,1-.15.07A.56.56,0,0,1,5,13.09a.68.68,0,0,1-.24-.36.67.67,0,0,1,0-.28" transform="translate(-0.52 -0.29)"/><circle class="cls-1" cx="5.01" cy="12.19" r="0.12"/><path class="cls-3" d="M6.4,10.84c-.81.15-.6,1.51.12,1.66C7.52,12.62,7.17,10.91,6.4,10.84Z" transform="translate(-0.52 -0.29)"/><path class="cls-2" d="M11,14.3a2.13,2.13,0,0,0-.43-.59.56.56,0,0,0-.53-.05.56.56,0,0,0-.23.55.27.27,0,0,0,0,.13.25.25,0,0,0,.11.12.56.56,0,0,0,.42.1.71.71,0,0,0,.37-.22.89.89,0,0,0,.14-.25" transform="translate(-0.52 -0.29)"/><circle class="cls-1" cx="9.6" cy="13.5" r="0.12"/><path class="cls-3" d="M10.21,11.7c.53.61-.45,1.53-1.1,1.21C8.27,12.41,9.57,11.3,10.21,11.7Z" transform="translate(-0.52 -0.29)"/><path class="cls-3" d="M2.37,8.87a4.94,4.94,0,0,0,3-.46A3.66,3.66,0,0,0,7.05,6.06,5.9,5.9,0,0,0,5.12.29a11.45,11.45,0,0,0-1,1.31A8.62,8.62,0,0,0,2.77,4.21,9.45,9.45,0,0,0,2.5,6.06C2.39,7.17,2.37,8.13,2.37,8.87Z" transform="translate(-0.52 -0.29)"/><path class="cls-3" d="M11.83,8.08a3.88,3.88,0,0,1,1.67-2c.62-.5,1.61-1.13,2-1.55a3.54,3.54,0,0,1,.33-.29A1.29,1.29,0,0,1,16.37,4c.42,0,1,2,.5,3.91-.31,1.09-.67,1-1,2.37a3,3,0,0,1-.69,1.66,1.58,1.58,0,0,1-1.11.45c-.73-.08-1.15-.94-1.57-1.8A3.64,3.64,0,0,1,11.83,8.08Z" transform="translate(-0.52 -0.29)"/><path class="cls-3" d="M8,21.57a1.44,1.44,0,0,0-.84,1.58.66.66,0,0,0,.3.41c.3.15.67-.13,1.57-.78,1.5-1.1,1.63-1.17,2.09-1.57a8.62,8.62,0,0,0,1-1.05A7.73,7.73,0,0,0,13,19c.76-1.31,1.23-2.88,1-3,0,0-.16.06-.41.22a1.87,1.87,0,0,0-.55.49,3.58,3.58,0,0,0-.25.42,1.67,1.67,0,0,0-.21.45c0,.15-.09.5-.3.52a.21.21,0,0,1-.11,0,2.67,2.67,0,0,0-.4,0,2.23,2.23,0,0,0-1.28.76c-.45.51-.72,1.15-1.15,1.68A2.77,2.77,0,0,1,8,21.57Z" transform="translate(-0.52 -0.29)"/><path class="cls-3" d="M3.31,16.55c-.31-.33-.69-.65-.76-1.05s.27-.89.28-1.35a.35.35,0,0,0-.08-.27.6.6,0,0,0-.43-.13A2.19,2.19,0,0,0,.78,14.87C0,16.21,1,18.14,2,20a17.9,17.9,0,0,0,1.36,2.22,1.76,1.76,0,0,0,.7-1.44c-.06-.51-.43-.57-.65-1.4a1.43,1.43,0,0,1,0-1.28,2.89,2.89,0,0,1,.27-.45.58.58,0,0,0,0-.53A1.69,1.69,0,0,0,3.31,16.55Z" transform="translate(-0.52 -0.29)"/><path class="cls-4" d="M3.62,17.07a1.06,1.06,0,0,1,.13,1.06,2.37,2.37,0,0,0-.19.39,2,2,0,0,0-.14.82,1.83,1.83,0,0,0,.27.78,1.54,1.54,0,0,0,.62.72.91.91,0,0,0,.51.18,5.06,5.06,0,0,1,.55,0c.53.07.87.61,1.36.81A1.76,1.76,0,0,0,8,21.7,2.35,2.35,0,0,0,8.87,21a4.59,4.59,0,0,0,.62-1" transform="translate(-0.52 -0.29)"/><path class="cls-3" d="M4.4,18.48A1.51,1.51,0,0,1,5,17.55a2.82,2.82,0,0,1,.48-.19.76.76,0,0,0,.42-.3A1.75,1.75,0,0,1,6,16.82a.64.64,0,0,1,.59-.19,1,1,0,0,1,.39.08,1,1,0,0,1,.49.83.47.47,0,0,0,0,.17c0,.09.16.13.25.18a.8.8,0,0,1,.35.72,2,2,0,0,1-.24.79" transform="translate(-0.52 -0.29)"/><path class="cls-2" d="M5,18.4c-1.3-.13-.77,1.72-.11,2.17.35.09.81-.23,1.09.13.57.47,1.48-.27,1.8-.79C8.21,18.52,5.94,18.3,5,18.4Zm0,1.26a.71.71,0,0,1-.14-.1.4.4,0,0,1-.07-.18.41.41,0,0,1,0-.16c0-.1.11-.12.2-.09l.19.1a.69.69,0,0,1,.13.11.73.73,0,0,1,.07.29l0,.18A1.37,1.37,0,0,1,5,19.66Zm2,.08s0,0,0,0a.63.63,0,0,1-.29.27.58.58,0,0,1-.39,0A.2.2,0,0,1,6.13,20a.25.25,0,0,1,0-.17.26.26,0,0,1,.25-.1,3,3,0,0,1,.52,0H7S7,19.73,7,19.74Z" transform="translate(-0.52 -0.29)"/><path class="cls-5" d="M3.82,20.16" transform="translate(-0.52 -0.29)"/><path class="cls-4" d="M3.65,22.68a15.57,15.57,0,0,1-1.9-3A9.7,9.7,0,0,1,.71,16,9.29,9.29,0,0,1,1,13.41c.44-2.11,1-2.23,1.31-3.93s-.2-1.57.06-3.54a10,10,0,0,1,1.05-3.4C3.9,1.59,4.53.39,5.22.45c.93.08,1.61,2.44,1.83,3.66.27,1.46.07,2.24.72,2.76.37.29.53.12,1.83.52S11,8,11.43,7.91s.51-.53,1.37-1.45a9.75,9.75,0,0,1,1.57-1.3c1.13-.81,1.69-1.22,2.09-1,.71.29.57,2.1.53,2.62-.2,2.57-1.17,3.18-2.1,6s-.38,3.68-1.63,5.9a11.37,11.37,0,0,1-1.71,2.27,12.49,12.49,0,0,1-3.72,2.55c-1.83.95-2.34.87-2.61.79S4.6,24,3.65,22.68Z" transform="translate(-0.52 -0.29)"/><path d="M3.69,20a3,3,0,0,0,.65,2.23,1.82,1.82,0,0,0,.78.78c.75.31,1.59-.21,2.1-.52.69-.43,1.26-1.05,1.17-1.18s-.59.37-1.31.26-.79-.68-1.56-.78c-.5-.07-.65.15-1,0C3.91,20.6,3.79,20,3.69,20Z" transform="translate(-0.52 -0.29)"/></svg>